<svg width="125" height="81" viewBox="0 0 125 81" fill="none" xmlns="http://www.w3.org/2000/svg">
<path d="M96.75 30.2C93.35 12.95 78.2 0 60 0C45.55 0 33 8.2 26.75 20.2C11.7 21.8 0 34.55 0 50C0 66.55 13.45 80 30 80H95C108.8 80 120 68.8 120 55C120 41.8 109.75 31.1 96.75 30.2ZM95 70H30C18.95 70 10 61.05 10 50C10 38.95 18.95 30 30 30H33.55C36.85 18.45 47.4 10 60 10C75.2 10 87.5 22.3 87.5 37.5V40H95C103.3 40 110 46.7 110 55C110 63.3 103.3 70 95 70Z" fill="#001AFF"/>
<rect x="91" y="57" width="34" height="23.1818" rx="8" fill="white"/>
<path d="M121.6 57H94.4C92.53 57 91.017 58.304 91.017 59.8977L91 77.2841C91 78.8778 92.53 80.1818 94.4 80.1818H121.6C123.47 80.1818 125 78.8778 125 77.2841V59.8977C125 58.304 123.47 57 121.6 57ZM121.6 77.2841H94.4V62.7955L108 70.0398L121.6 62.7955V77.2841ZM108 67.142L94.4 59.8977H121.6L108 67.142Z" fill="#001AFF"/>
</svg>
